<?xml version='1.0' encoding='utf-8'?>
<svg xmlns="http://www.w3.org/2000/svg" enable-background="new 0 0 1080 1080" version="1.1" viewBox="0 0 1080 1080"> <style type="text/css">.st0{fill:#E20613;}</style> <path class="st0" d="m50.95 17.53c36.42 25.1 71.7 51.8 106.79 78.69 219.51 170.88 424.12 361.11 610.49 567.65 15.4 17.31 31.87 36.19 47.21 53.64 11.58 13.64 34.6 40.86 46.14 54.59 14.04 17.21 31.13 38.2 45.09 55.46 10.35 13.23 33.75 43.16 44 56.34 21.97 29.27 43.59 59.11 62.96 90.18 7.82 12.43 15.5 24.95 22.65 37.82 9.61 18.11-13.75 35.64-28.39 20.41-49.24-55.35-93.2-116.92-138.43-175.56-60.81-78.21-124.43-156.97-189.54-231.66-152.2-175.41-319.22-339.49-504.59-479.74-44.87-33.67-90.57-66.31-138.47-95.51l-4.49-2.65c-8.51-4.81-11.45-15.74-6.45-24.15 5.13-8.71 16.73-11.26 25.03-5.51z"/> <path class="st0" d="m32.52 1017.4c202.6-189.44 403.83-382.41 598.16-580.24 102.38-103.9 201.58-211.29 302.41-316.63 29.15-30.35 61.72-64.83 91.47-94.45 7.84-7.99 20.77-8.02 28.62-0.03 6.91 7.01 7.6 17.81 2.16 25.59-16.93 24.21-34.44 48.02-52.6 71.25-54.14 69.88-112.56 136.43-172.84 201-27.51 29.26-55.94 58.81-83.88 87.73-146.03 149.82-297.97 294.7-453.73 434.3-76.69 68.56-154.1 136.23-233.51 201.66-19.99 15.41-44.76-11.49-26.26-30.18z"/> </svg>