<?xml version='1.0' encoding='utf-8'?>
<svg xmlns="http://www.w3.org/2000/svg" enable-background="new 0 0 1920 1080" version="1.1" viewBox="0 0 1920 1080"> <style type="text/css">.st0{fill:#960000;}</style> <path d="m727.77 130.45c-45.32 36.32-89.02 74.79-130.66 115.28-11.14 10.83-18.56 25.98-20.72 41.24-1.23 5.44-1.18 10.91 0.13 16.41 1.33 6.38 4.61 11.48 9.85 15.31 25.5 25 51.72 49.21 78.67 72.64 25.86 22.48 52.08 44.56 77.52 67.52 9.21 8.31 17.86 17.28 26.47 26.2-2.08-2.16-4.17-4.33-6.25-6.49 8.59 8.92 17.06 17.96 25.26 27.24 5.96 6.74 12.16 13.56 17.05 21.15 8.93-25 17.86-49.99 26.79-74.99-16.03 12.63-31.52 26.2-45.71 40.89-14.59 15.11-27.39 31.7-40.55 48.04 2.93-3.63 5.87-7.26 8.8-10.9-11.56 14.31-23.49 28.34-34.67 42.94-7.6 9.93-14.6 20.28-22.45 30.03 2.93-3.63 5.87-7.26 8.8-10.9-35.51 43.84-78.59 81.3-109.69 128.75-10.36 15.81-19.8 32.62-26.92 50.16-3.98 9.81-8.24 23.74-4.96 34.53l3.6 8.82c3.47 5.36 8.34 8.66 14.6 9.88 3.16 1.21 6.31 2.46 9.45 3.73-2.78-1.13-5.57-2.26-8.35-3.39 45.1 18.39 87.41 43.24 125.41 73.7 2.78 1.13 5.57 2.26 8.35 3.39 5.08 0.96 9.94 0.47 14.61-1.47 9.83-2.94 17.79-8.71 25.12-15.93 61.38-60.46 118.03-125.58 170.3-194.06 14.07-18.43 27.78-37.17 41.11-56.17-21.04 6.14-42.09 12.28-63.13 18.42 19.77 35.35 45.33 67.24 69.66 99.49 26.14 34.66 49.58 71.05 73.93 106.95 13.99 20.64 28.56 40.88 44.48 60.09 2.08 2.16 4.17 4.33 6.25 6.49 4.04 2.84 8.41 3.97 13.12 3.41 3.42 0.48 6.7-0.01 9.84-1.49 5.63-1.26 10.74-3.73 15.33-7.42 47.81-27.57 94.8-56.54 141-86.72 13.16-8.6 22.51-23.23 27.56-37.77 2.41-5.67 3.67-11.61 3.79-17.84 0.41-6.93-1.11-13.39-4.56-19.38-27.96-37.11-55.56-74.48-82.69-112.2-27.53-38.28-54.59-76.9-80.98-115.98-7.25-10.74-14.46-21.51-21.6-32.33-3.49-5.27-6.96-10.55-10.41-15.84-3.53-5.41-7.68-10.78-10.58-16.56l3.6 8.82c-0.47-1.18-0.76-2.29-0.91-3.55l0.96 10.56c-0.08-1.69 0.05-3.35 0.21-5.03-0.55 3.9-1.11 7.8-1.66 11.71 0.07-0.68 0.2-1.35 0.41-2.01-1.42 4.09-2.84 8.17-4.26 12.26 0.2-0.64 0.46-1.26 0.77-1.86-2.28 4.07-4.56 8.15-6.84 12.22 0.52-0.91 1.07-1.71 1.72-2.54-2.93 3.63-5.87 7.26-8.8 10.9 0.71-0.8 1.43-1.54 2.21-2.27-3.27 2.84-6.53 5.68-9.8 8.52 6.2-5.37 13.52-9.64 20.26-14.29 6.96-4.8 13.92-9.62 20.86-14.45 14.23-9.9 28.42-19.86 42.6-29.84 28.32-19.94 56.57-39.97 84.96-59.82 16.18-11.31 32.4-22.55 48.7-33.69 13.1-8.95 22.44-23.01 27.56-37.77 4.36-12.54 5.61-25.09-0.77-37.22-21.53-40.95-49.3-77.32-81.44-110.48-8.54-8.81-17.42-17.26-26.64-25.36-4.04-2.84-8.41-3.97-13.12-3.41-5.19-0.49-10.16 0.51-14.92 3.01-35.22 19.32-69.88 39.8-102.99 62.56-33.25 22.86-64.59 48.13-94.68 75-16.03 14.32-31.49 29.27-46.39 44.75 16.03-4.67 32.05-9.34 48.08-14.01-19.34-18.71-39.3-36.79-58.6-55.54-3.56-3.46-7.06-6.98-10.5-10.56 2.08 2.16 4.17 4.33 6.25 6.49-3.82-3.97-7.57-7.99-11.3-12.05-6.89-7.49-13.41-15.64-20.85-22.58-3.62-3.38-7.39-6.62-11.08-9.93-16.49-14.78-32.98-29.55-49.47-44.33-4.51-4.04-9.02-8.08-13.52-12.12 2.08 2.16 4.17 4.33 6.25 6.49-17.79-19.27-39.07-34.22-60.38-49.3-8.05-5.69-19.67-3.94-28.04-0.4-11.18 4.73-22.41 15.19-28.84 25.31-6.74 10.6-13 23.33-12.75 36.19 0.19 9.81 2.19 19.78 10.81 25.87 18 12.73 36.95 25.22 52.45 41.02-2.08-2.16-4.17-4.33-6.25-6.49 10.05 10.44 20.88 19.88 31.68 29.55 13.59 12.18 27.18 24.35 40.77 36.53 3.18 2.85 6.37 5.71 9.55 8.56-2.08-2.16-4.17-4.33-6.25-6.49 12.9 14.35 25.91 28.63 39.62 42.21 9.79 9.7 20.03 18.94 30.07 28.38 10.6 9.96 21.1 20.01 31.56 30.12 2.78 1.13 5.57 2.26 8.35 3.39 5.08 0.96 9.94 0.47 14.61-1.47 9.66-2.89 18.11-8.64 25.12-15.93 17.47-18.16 35.72-35.55 54.73-52.1-3.27 2.84-6.53 5.68-9.8 8.52 34.96-30.33 72.43-57.62 111.67-82.15 11.27-7.04 22.68-13.86 34.19-20.5-3.42 1.97-6.83 3.93-10.25 5.9 7.76-4.47 15.58-8.85 23.43-13.15-9.35-0.13-18.69-0.27-28.04-0.4 9.52 8.37 18.69 17.12 27.49 26.24-2.08-2.16-4.17-4.33-6.25-6.49 29.47 30.7 54.54 65.43 74.34 103.1 8.93-25 17.86-49.99 26.79-74.99-36.39 24.87-72.41 50.3-108.42 75.71-17.59 12.42-35.19 24.83-52.83 37.17-9.04 6.32-18.09 12.62-27.16 18.9-8.79 6.08-17.93 11.82-26.46 18.26-9.66 7.29-18.58 15.96-25.03 26.27-5.48 8.76-10.29 18.11-12.28 28.36-1.05 5.42-2.01 11.18-1.86 16.74 0.24 9.01 1.25 14.96 5.47 22.93 0.97 1.83 2.1 3.53 3.23 5.27 2.93 4.53 5.88 9.04 8.83 13.56 11.69 17.86 23.55 35.62 35.54 53.29 24.03 35.42 48.6 70.47 73.56 105.23 27.91 38.86 56.32 77.36 85.11 115.57 8.93-25 17.86-49.99 26.79-74.99-46.2 30.19-93.19 59.15-141 86.72 14.85 0.33 29.69 0.66 44.54 1-28.16-33.97-51.77-71.22-76.29-107.81-23.53-35.12-49.54-68.27-74.49-102.36-13.3-18.17-26.29-36.68-37.29-56.36-3.47-5.36-8.34-8.66-14.6-9.88-5.08-0.96-9.94-0.47-14.61 1.47-14.44 4.32-25.38 14.66-33.92 26.83-22.4 31.91-45.86 63.06-70.34 93.4 2.93-3.63 5.87-7.26 8.8-10.9-32.21 39.86-66.16 78.3-101.77 115.16-10.04 10.39-20.22 20.66-30.52 30.8 16.03-4.67 32.05-9.34 48.08-14.01-43.23-34.65-91.57-60.98-143.21-80.82 4.42 17.74 8.83 35.48 13.25 53.23 3.33-8.2 7.2-16.14 11.51-23.87-2.28 4.07-4.56 8.15-6.84 12.22 7.97-14.08 17.36-27.25 27.49-39.85-2.93 3.63-5.87 7.26-8.8 10.9 13.96-17.26 29.21-33.42 44.35-49.64 18.14-19.44 35.71-39.27 51.97-60.35 8.52-11.05 16.38-22.56 25.14-33.44-2.93 3.63-5.87 7.26-8.8 10.9 11.72-14.5 23.49-28.95 35.17-43.48-2.93 3.63-5.87 7.26-8.8 10.9 13.81-17.08 28.89-33.04 45.47-47.46-3.27 2.84-6.53 5.68-9.8 8.52 4.4-3.8 8.89-7.5 13.46-11.1 12.8-10.09 22.2-22.33 27.56-37.77 4.06-11.71 6.45-26.04-0.77-37.22-8.35-12.93-19.68-24.31-30.13-35.52-13.42-14.41-27.03-28.76-41.35-42.28-16.13-15.22-33.22-29.52-50.01-44-16.03-13.82-32.12-27.56-47.94-41.62-21.09-18.74-41.64-38.07-61.79-57.82-3.58 24.32-7.16 48.64-10.75 72.96 22.36-21.74 45.31-42.86 68.83-63.33-3.27 2.84-6.53 5.68-9.8 8.52 17.06-14.82 34.4-29.3 52.04-43.44 10.75-8.62 19.77-18.91 25.43-31.64 2.88-5.75 4.57-11.79 5.09-18.11 1.23-5.44 1.18-10.91-0.13-16.41-2.67-8.78-8.15-17.32-18.2-18.7-10.46-1.41-21.79 2.38-29.93 8.91z"/> <path class="st0" d="m736.64 168.44c-41.98 33.62-82.33 69.26-120.87 106.77 63.75 62.53 93.97 84.46 156.19 140.16 13.94 12.48 58.7 58.82 68.78 74.59-24.24 19.03-43.84 39.23-62.85 63.48-12.28 15.66-26.95 32.21-38.34 48.52-42.54 60.9-108.02 106.47-135.77 175.38 48.61 18.6 94.29 44.83 134.86 77.43 74.6-73.43 142.52-153.66 202.63-239.36 21.14 37.96 57.48 82.52 83.14 117.58 37.87 51.74 65.24 101.19 104.92 148.95 48.37-27.88 94.27-56.18 141-86.72-70.03-92.94-142.05-193.29-205.22-291.03-2.33-3.61-2.17-6.19-1.75-10.46 0.55-5.57 5.61-9.43 10.23-12.58 71.61-48.93 140.65-99.26 212.26-148.19-25.61-48.88-60.32-92.98-101.83-129.34-82.58 45.23-155.24 96.32-224.02 167.9-60.63-58.67-52.93-47.41-95-94.22l-74.07-66.37c-12.44-13.63-39.7-32.59-54.13-42.8"/> <path d="m745.46 115.01c-45.32 36.32-89.02 74.79-130.66 115.28-11.14 10.83-18.56 25.98-20.72 41.24-1.23 5.44-1.18 10.91 0.13 16.41 1.33 6.38 4.61 11.48 9.85 15.31 4.34 4.27 8.62 8.58 12.85 12.96-2.08-2.16-4.17-4.33-6.25-6.49 22.43 23.34 42.21 48.73 62.24 74.1 21.52 27.26 45 52.5 70.66 75.93 8.96 8.18 17.41 16.94 25.82 25.67-2.08-2.16-4.17-4.33-6.25-6.49 8.52 8.86 16.93 17.84 25.07 27.05 5.91 6.68 12.04 13.45 16.89 20.97 8.93-25 17.86-49.99 26.79-74.99-16.06 12.66-31.57 26.24-45.78 40.97-14.6 15.13-27.41 31.74-40.58 48.1 2.93-3.63 5.87-7.26 8.8-10.9-14.23 17.61-29.19 34.71-42.23 53.25-10.09 14.35-20.36 28.58-30.63 42.8-20.15 27.91-40.14 56.03-57.14 86.01-11.99 21.14-23.35 42.46-32.47 65.01-3.98 9.82-8.24 23.72-4.96 34.53l3.6 8.82c3.47 5.36 8.34 8.66 14.6 9.88 3.24 1.24 6.47 2.52 9.68 3.82-2.78-1.13-5.57-2.26-8.35-3.39 45.02 18.38 87.23 43.2 125.18 73.61 2.78 1.13 5.57 2.26 8.35 3.39 5.08 0.96 9.94 0.47 14.61-1.47 9.83-2.94 17.8-8.71 25.12-15.93 59.68-58.89 105.05-129.6 150.67-199.38 12.55-19.2 25.23-38.31 38.39-57.09-21.04 6.14-42.09 12.28-63.13 18.42 19.78 35.5 40.22 70.76 62.95 104.46 11.86 17.59 24.63 34.54 36.54 52.11 12.33 18.2 24.28 36.66 36.61 54.87 14.15 20.88 28.86 41.38 44.97 60.8 2.08 2.16 4.17 4.33 6.25 6.49 4.04 2.84 8.41 3.97 13.12 3.41 3.42 0.48 6.7-0.01 9.84-1.49 5.63-1.26 10.74-3.73 15.33-7.42 47.81-27.57 94.8-56.54 141-86.72 13.16-8.6 22.51-23.23 27.56-37.77 2.41-5.67 3.67-11.61 3.79-17.84 0.41-6.93-1.11-13.39-4.56-19.38-32.44-43.08-62.9-87.62-92.55-132.65-29.71-45.12-58.6-90.78-87.77-136.26-6.61-10.31-13.34-20.56-19.88-30.92-4.45-7.05-9.13-14.25-12.33-21.97l3.6 8.82c-0.39-0.99-0.75-1.99-0.91-3.04l0.96 10.56c-0.02-0.19-0.03-0.38-0.01-0.58-0.55 3.9-1.11 7.8-1.66 11.71 0.05-0.45 0.14-0.88 0.29-1.31-1.42 4.09-2.84 8.17-4.26 12.26 0.16-0.46 0.36-0.91 0.59-1.34-2.28 4.07-4.56 8.15-6.84 12.22 0.42-0.72 0.86-1.38 1.36-2.05-2.93 3.63-5.87 7.26-8.8 10.9 1.19-1.46 2.51-2.77 3.91-4.04-3.27 2.84-6.53 5.68-9.8 8.52 5.09-4.42 10.84-8.04 16.39-11.85 7.37-5.06 14.73-10.14 22.08-15.24 14.85-10.3 29.65-20.67 44.43-31.07 29.51-20.76 58.94-41.64 88.51-62.32 16.63-11.63 33.3-23.19 50.05-34.64 13.1-8.95 22.44-23.01 27.56-37.77 4.36-12.54 5.61-25.09-0.77-37.22-21.45-40.81-49.1-77.06-81.1-110.12-8.64-8.93-17.64-17.51-26.98-25.71-4.04-2.84-8.41-3.97-13.12-3.41-5.19-0.49-10.16 0.51-14.92 3.01-35.93 19.75-69.12 42.93-100.12 69.75-31.54 27.28-61.24 56.28-90.15 86.31-15.2 15.79-30.26 31.72-45.44 47.53 16.03-4.67 32.05-9.34 48.08-14.01-22.83-22.08-46.9-43.06-68.95-65.93 2.08 2.16 4.17 4.33 6.25 6.49-9.18-9.54-18.57-19.18-26.96-29.42-6.66-8.12-13.2-16.34-19.8-24.5-14.16-17.53-27.79-35.66-42.99-52.31-9.78-10.71-19.71-21.29-29.87-31.64-7.33-7.46-14.82-15.09-23.34-21.2-7.99-5.73-19.73-3.92-28.04-0.4-11.18 4.73-22.41 15.19-28.84 25.31-6.74 10.6-13 23.33-12.75 36.19 0.19 9.85 2.22 19.72 10.81 25.87 10.23 7.33 19.08 16.74 27.78 25.77-2.08-2.16-4.17-4.33-6.25-6.49 10.99 11.45 21.87 23.01 31.84 35.35 10.99 13.6 21.97 27.19 32.96 40.79 7.76 9.61 15.33 19.36 23.62 28.52 13.15 14.54 26.5 28.96 40.7 42.49 18.29 17.42 36.87 34.53 55.02 52.09 2.78 1.13 5.57 2.26 8.35 3.39 5.08 0.96 9.94 0.47 14.61-1.47 9.65-2.89 18.12-8.64 25.12-15.93 31.9-33.21 63.21-67.04 96.61-98.77 9.23-8.77 18.63-17.36 28.23-25.72-3.27 2.84-6.53 5.68-9.8 8.52 25.92-22.5 53.42-43.2 83.17-60.39-3.42 1.97-6.83 3.93-10.25 5.9 2.54-1.46 5.09-2.89 7.66-4.3-9.35-0.13-18.69-0.27-28.04-0.4 9.5 8.34 18.64 17.07 27.42 26.16-2.08-2.16-4.17-4.33-6.25-6.49 29.5 30.72 54.59 65.48 74.41 103.18 8.93-25 17.86-49.99 26.79-74.99-40.58 27.74-80.69 56.16-120.86 84.49-20.07 14.16-40.16 28.29-60.34 42.3-10.13 7.03-20.28 14.03-30.46 20.99-16.94 11.59-31.73 26.19-40.5 45.05-3.73 8.03-6.55 17.67-6.8 26.61-0.11 4 0.16 8.76 1.34 12.7 1.59 5.31 4.05 10.61 6.63 15.56 3.04 5.81 6.48 11.42 9.99 16.97 10.99 17.38 22.25 34.59 33.32 51.91 25.32 39.6 50.57 79.26 76.46 118.49 25.72 38.98 52.06 77.56 79.79 115.14 3.47 4.7 6.96 9.37 10.47 14.04 8.93-25 17.86-49.99 26.79-74.99-46.2 30.19-93.19 59.15-141 86.72 14.85 0.33 29.69 0.66 44.54 1-28.43-34.29-52.22-71.94-76.99-108.86-12.03-17.93-24.87-35.27-37.12-53.05-11.55-16.76-22.38-34.01-32.9-51.43-11.72-19.42-23.02-39.09-34.06-58.91-3.47-5.36-8.34-8.66-14.6-9.88-5.08-0.96-9.94-0.47-14.61 1.47-14.43 4.32-25.4 14.66-33.92 26.83-34.92 49.85-66.23 102.14-101.6 151.68-10 14-20.33 27.76-31.13 41.16 2.93-3.63 5.87-7.26 8.8-10.9-14.9 18.42-30.68 36.1-47.54 52.75 16.03-4.67 32.05-9.34 48.08-14.01-43.24-34.65-91.57-60.98-143.21-80.82 4.42 17.74 8.83 35.48 13.25 53.23 7.03-17.37 15.24-34.21 24.38-50.56-2.28 4.07-4.56 8.15-6.84 12.22 23.42-41.66 52.52-79.65 80.18-118.51 8.16-11.47 16.26-22.89 25.1-33.85-2.93 3.63-5.87 7.26-8.8 10.9 11.64-14.39 23.32-28.74 34.92-43.16-2.93 3.63-5.87 7.26-8.8 10.9 13.68-16.91 28.6-32.71 45-47-3.27 2.84-6.53 5.68-9.8 8.52 4.52-3.91 9.13-7.72 13.83-11.42 12.8-10.09 22.2-22.33 27.56-37.77 4.06-11.7 6.45-26.04-0.77-37.22-8.58-13.29-20.26-24.96-31.01-36.47-13.48-14.43-27.11-28.88-41.55-42.35-9.71-9.06-19.49-17.97-28.71-27.54 2.08 2.16 4.17 4.33 6.25 6.49-29.69-30.97-53.78-66.61-82.18-98.7-11.63-13.14-23.82-25.82-36.33-38.12-3.58 24.32-7.16 48.64-10.75 72.96 22.46-21.84 45.53-43.06 69.17-63.63-3.27 2.84-6.53 5.68-9.8 8.52 16.95-14.72 34.18-29.1 51.7-43.14 10.75-8.62 19.77-18.91 25.43-31.64 2.88-5.75 4.57-11.79 5.09-18.11 1.23-5.44 1.18-10.91-0.13-16.41-2.67-8.78-8.15-17.32-18.2-18.7-10.45-1.43-21.78 2.36-29.93 8.89z"/> <path class="st0" d="m754.33 153c-41.98 33.62-82.33 69.26-120.87 106.77 63.75 62.53 76.27 99.9 138.5 155.6 13.94 12.48 58.7 58.82 68.78 74.59-24.24 19.03-43.84 39.23-62.85 63.48-12.28 15.66-26.95 32.21-38.34 48.52-42.54 60.9-85.66 112.7-113.41 181.6 48.61 18.61 94.29 44.84 134.86 77.44 74.6-73.43 120.16-159.88 180.27-245.58 21.14 37.96 50.49 88.24 76.15 123.3 37.87 51.74 65.24 101.19 104.92 148.95 48.37-27.88 94.27-56.18 141-86.72-70.04-92.95-135.06-199.02-198.23-296.75-2.33-3.61-15.64-24.4-15.22-28.68 0.55-5.57 10.73-12.5 15.35-15.65 71.61-48.93 140.65-99.26 212.26-148.19-25.61-48.88-60.32-92.98-101.83-129.34-82.58 45.23-146.88 117.6-215.67 189.19-60.63-58.67-52.93-47.41-95-94.22l-57.33-70.96c-12.45-13.65-38.91-43.14-53.34-53.35"/> </svg>